<mxfile host="app.diagrams.net" modified="2024-02-19T02:21:25.689Z" agent="Mozilla/5.0 (X11; Linux x86_64) AppleWebKit/537.36 (KHTML, like Gecko) Chrome/116.0.0.0 Safari/537.36" etag="eBh6teLCcdc3Yqvk8PVm" version="23.1.5" type="github">
  <diagram id="C5RBs43oDa-KdzZeNtuy" name="Page-1">
    <mxGraphModel dx="1058" dy="623" grid="1" gridSize="10" guides="1" tooltips="1" connect="1" arrows="1" fold="1" page="1" pageScale="1" pageWidth="827" pageHeight="1169" math="0" shadow="0">
      <root>
        <mxCell id="WIyWlLk6GJQsqaUBKTNV-0" />
        <mxCell id="WIyWlLk6GJQsqaUBKTNV-1" parent="WIyWlLk6GJQsqaUBKTNV-0" />
        <mxCell id="tByDXc4YOt9ATbDAC1VS-1" value="Perpus Digital" style="swimlane;whiteSpace=wrap;html=1;" vertex="1" parent="WIyWlLk6GJQsqaUBKTNV-1">
          <mxGeometry x="320" y="70" width="280" height="430" as="geometry" />
        </mxCell>
        <mxCell id="tByDXc4YOt9ATbDAC1VS-2" value="From Pengunjung" style="ellipse;whiteSpace=wrap;html=1;" vertex="1" parent="tByDXc4YOt9ATbDAC1VS-1">
          <mxGeometry x="50" y="50" width="180" height="60" as="geometry" />
        </mxCell>
        <mxCell id="tByDXc4YOt9ATbDAC1VS-4" value="Pencarian Buku" style="ellipse;whiteSpace=wrap;html=1;" vertex="1" parent="tByDXc4YOt9ATbDAC1VS-1">
          <mxGeometry x="50" y="150" width="180" height="60" as="geometry" />
        </mxCell>
        <mxCell id="tByDXc4YOt9ATbDAC1VS-5" value="Detail Buku" style="ellipse;whiteSpace=wrap;html=1;" vertex="1" parent="tByDXc4YOt9ATbDAC1VS-1">
          <mxGeometry x="50" y="240" width="180" height="60" as="geometry" />
        </mxCell>
        <mxCell id="tByDXc4YOt9ATbDAC1VS-6" value="Laporan Statistik" style="ellipse;whiteSpace=wrap;html=1;" vertex="1" parent="tByDXc4YOt9ATbDAC1VS-1">
          <mxGeometry x="50" y="330" width="180" height="60" as="geometry" />
        </mxCell>
        <mxCell id="tByDXc4YOt9ATbDAC1VS-8" value="Pustakawan" style="shape=umlActor;verticalLabelPosition=bottom;verticalAlign=top;html=1;outlineConnect=0;" vertex="1" parent="WIyWlLk6GJQsqaUBKTNV-1">
          <mxGeometry x="690" y="200" width="80" height="140" as="geometry" />
        </mxCell>
        <mxCell id="tByDXc4YOt9ATbDAC1VS-9" value="Petugas" style="shape=umlActor;verticalLabelPosition=bottom;verticalAlign=top;html=1;outlineConnect=0;" vertex="1" parent="WIyWlLk6GJQsqaUBKTNV-1">
          <mxGeometry x="120" y="200" width="80" height="140" as="geometry" />
        </mxCell>
        <mxCell id="tByDXc4YOt9ATbDAC1VS-14" value="" style="endArrow=none;html=1;rounded=0;exitX=1;exitY=0.3333333333333333;exitDx=0;exitDy=0;exitPerimeter=0;entryX=0;entryY=0.5;entryDx=0;entryDy=0;" edge="1" parent="WIyWlLk6GJQsqaUBKTNV-1" source="tByDXc4YOt9ATbDAC1VS-9" target="tByDXc4YOt9ATbDAC1VS-2">
          <mxGeometry width="50" height="50" relative="1" as="geometry">
            <mxPoint x="130" y="250" as="sourcePoint" />
            <mxPoint x="180" y="200" as="targetPoint" />
          </mxGeometry>
        </mxCell>
        <mxCell id="tByDXc4YOt9ATbDAC1VS-15" value="" style="endArrow=none;html=1;rounded=0;entryX=0;entryY=0.5;entryDx=0;entryDy=0;exitX=1;exitY=0.3333333333333333;exitDx=0;exitDy=0;exitPerimeter=0;" edge="1" parent="WIyWlLk6GJQsqaUBKTNV-1" source="tByDXc4YOt9ATbDAC1VS-9" target="tByDXc4YOt9ATbDAC1VS-4">
          <mxGeometry width="50" height="50" relative="1" as="geometry">
            <mxPoint x="130" y="250" as="sourcePoint" />
            <mxPoint x="180" y="200" as="targetPoint" />
          </mxGeometry>
        </mxCell>
        <mxCell id="tByDXc4YOt9ATbDAC1VS-16" value="" style="endArrow=none;html=1;rounded=0;entryX=0;entryY=0.5;entryDx=0;entryDy=0;exitX=1;exitY=0.3333333333333333;exitDx=0;exitDy=0;exitPerimeter=0;" edge="1" parent="WIyWlLk6GJQsqaUBKTNV-1" source="tByDXc4YOt9ATbDAC1VS-9" target="tByDXc4YOt9ATbDAC1VS-5">
          <mxGeometry width="50" height="50" relative="1" as="geometry">
            <mxPoint x="130" y="250" as="sourcePoint" />
            <mxPoint x="180" y="200" as="targetPoint" />
          </mxGeometry>
        </mxCell>
        <mxCell id="tByDXc4YOt9ATbDAC1VS-17" value="" style="endArrow=none;html=1;rounded=0;entryX=0;entryY=0.3333333333333333;entryDx=0;entryDy=0;entryPerimeter=0;exitX=1;exitY=0.5;exitDx=0;exitDy=0;" edge="1" parent="WIyWlLk6GJQsqaUBKTNV-1" source="tByDXc4YOt9ATbDAC1VS-2" target="tByDXc4YOt9ATbDAC1VS-8">
          <mxGeometry width="50" height="50" relative="1" as="geometry">
            <mxPoint x="640" y="300" as="sourcePoint" />
            <mxPoint x="690" y="250" as="targetPoint" />
          </mxGeometry>
        </mxCell>
        <mxCell id="tByDXc4YOt9ATbDAC1VS-19" value="" style="endArrow=none;html=1;rounded=0;entryX=0;entryY=0.3333333333333333;entryDx=0;entryDy=0;entryPerimeter=0;exitX=1;exitY=0.5;exitDx=0;exitDy=0;" edge="1" parent="WIyWlLk6GJQsqaUBKTNV-1" source="tByDXc4YOt9ATbDAC1VS-4" target="tByDXc4YOt9ATbDAC1VS-8">
          <mxGeometry width="50" height="50" relative="1" as="geometry">
            <mxPoint x="640" y="300" as="sourcePoint" />
            <mxPoint x="690" y="250" as="targetPoint" />
          </mxGeometry>
        </mxCell>
        <mxCell id="tByDXc4YOt9ATbDAC1VS-20" value="" style="endArrow=none;html=1;rounded=0;entryX=0;entryY=0.3333333333333333;entryDx=0;entryDy=0;entryPerimeter=0;exitX=1;exitY=0.5;exitDx=0;exitDy=0;" edge="1" parent="WIyWlLk6GJQsqaUBKTNV-1" source="tByDXc4YOt9ATbDAC1VS-5" target="tByDXc4YOt9ATbDAC1VS-8">
          <mxGeometry width="50" height="50" relative="1" as="geometry">
            <mxPoint x="640" y="300" as="sourcePoint" />
            <mxPoint x="690" y="250" as="targetPoint" />
          </mxGeometry>
        </mxCell>
        <mxCell id="tByDXc4YOt9ATbDAC1VS-21" value="" style="endArrow=none;html=1;rounded=0;entryX=0;entryY=0.3333333333333333;entryDx=0;entryDy=0;entryPerimeter=0;exitX=1;exitY=0.5;exitDx=0;exitDy=0;" edge="1" parent="WIyWlLk6GJQsqaUBKTNV-1" source="tByDXc4YOt9ATbDAC1VS-6" target="tByDXc4YOt9ATbDAC1VS-8">
          <mxGeometry width="50" height="50" relative="1" as="geometry">
            <mxPoint x="640" y="300" as="sourcePoint" />
            <mxPoint x="690" y="250" as="targetPoint" />
          </mxGeometry>
        </mxCell>
      </root>
    </mxGraphModel>
  </diagram>
</mxfile>
